<svg width="28" height="28" viewBox="0 0 28 28" fill="none" xmlns="http://www.w3.org/2000/svg">
    <g id="Component 3">
        <g id="vuesax/linear/notification-bing">
            <g id="notification-bing">
                <path id="Vector"
                      d="M14.0232 2.3335C9.72988 2.3335 6.25321 5.81016 6.25321 10.1035V12.5535C6.25321 13.3468 5.92655 14.5368 5.51821 15.2135L4.03655 17.6868C3.12655 19.2152 3.75655 20.9185 5.43655 21.4785C11.0132 23.3335 17.0449 23.3335 22.6215 21.4785C24.1965 20.9535 24.8732 19.1102 24.0215 17.6868L22.5399 15.2135C22.1315 14.5368 21.8049 13.3352 21.8049 12.5535V10.1035C21.7932 5.8335 18.2932 2.3335 14.0232 2.3335Z"
                      stroke="#00AB55" stroke-width="1.5" stroke-miterlimit="10" stroke-linecap="round"/>
                <path id="Vector_2"
                      d="M17.885 21.9565C17.885 24.0915 16.135 25.8415 14 25.8415C12.9383 25.8415 11.9583 25.3982 11.2583 24.6982C10.5583 23.9982 10.115 23.0182 10.115 21.9565"
                      stroke="#00AB55" stroke-width="1.5" stroke-miterlimit="10"/>
            </g>
        </g>
    </g>
</svg>
