<svg width="40" height="40" viewBox="0 0 40 40" fill="none" xmlns="http://www.w3.org/2000/svg">
<path d="M26 36H32C33.0609 36 34.0783 35.5786 34.8284 34.8284C35.5786 34.0783 36 33.0609 36 32V26C36 25.4696 36.2107 24.9609 36.5858 24.5858C36.9609 24.2107 37.4696 24 38 24C38.5304 24 39.0391 24.2107 39.4142 24.5858C39.7893 24.9609 40 25.4696 40 26V32C40 34.1217 39.1571 36.1566 37.6569 37.6569C36.1566 39.1571 34.1217 40 32 40H8C5.87827 40 3.84344 39.1571 2.34315 37.6569C0.842855 36.1566 0 34.1217 0 32V26C0 25.4696 0.210714 24.9609 0.585786 24.5858C0.960859 24.2107 1.46957 24 2 24C2.53043 24 3.03914 24.2107 3.41421 24.5858C3.78929 24.9609 4 25.4696 4 26V32C4 33.0609 4.42143 34.0783 5.17157 34.8284C5.92172 35.5786 6.93913 36 8 36H14C14.5304 36 15.0391 36.2107 15.4142 36.5858C15.7893 36.9609 16 37.4696 16 38C16 38.5304 15.7893 39.0391 15.4142 39.4142C15.0391 39.7893 14.5304 40 14 40H26C25.4696 40 24.9609 39.7893 24.5858 39.4142C24.2107 39.0391 24 38.5304 24 38C24 37.4696 24.2107 36.9609 24.5858 36.5858C24.9609 36.2107 25.4696 36 26 36V36ZM4 14C4 14.5304 3.78929 15.0391 3.41421 15.4142C3.03914 15.7893 2.53043 16 2 16C1.46957 16 0.960859 15.7893 0.585786 15.4142C0.210714 15.0391 0 14.5304 0 14V8C0 5.87827 0.842855 3.84344 2.34315 2.34315C3.84344 0.842855 5.87827 0 8 0L14 0C14.5304 0 15.0391 0.210714 15.4142 0.585786C15.7893 0.960859 16 1.46957 16 2C16 2.53043 15.7893 3.03914 15.4142 3.41421C15.0391 3.78929 14.5304 4 14 4H8C6.93913 4 5.92172 4.42143 5.17157 5.17157C4.42143 5.92172 4 6.93913 4 8V14ZM36 14V8C36 6.93913 35.5786 5.92172 34.8284 5.17157C34.0783 4.42143 33.0609 4 32 4H26C25.4696 4 24.9609 3.78929 24.5858 3.41421C24.2107 3.03914 24 2.53043 24 2C24 1.46957 24.2107 0.960859 24.5858 0.585786C24.9609 0.210714 25.4696 0 26 0L32 0C34.1217 0 36.1566 0.842855 37.6569 2.34315C39.1571 3.84344 40 5.87827 40 8V14C40 14.5304 39.7893 15.0391 39.4142 15.4142C39.0391 15.7893 38.5304 16 38 16C37.4696 16 36.9609 15.7893 36.5858 15.4142C36.2107 15.0391 36 14.5304 36 14Z" fill="#FFFBFB"/>
</svg>
